<svg width="305" height="73" viewBox="0 0 305 73" fill="none" xmlns="http://www.w3.org/2000/svg">
<path d="M23.5517 28.9134C22.655 27.7454 20.9285 26.7703 18.7227 26.7703C16.506 26.7703 14.7811 27.7454 13.8833 28.9134C12.7793 30.3695 12.0889 32.0218 12.0889 41.0079C12.0889 49.9801 12.7793 51.5667 13.8833 53.0203C14.7811 54.1899 16.506 55.233 18.7227 55.233C20.9285 55.233 22.655 54.1899 23.5517 53.0203C24.6573 51.5667 25.3472 49.9801 25.3472 41.0079C25.3472 32.0218 24.6573 30.3695 23.5517 28.9134ZM32.4656 60.4817C28.8685 64.0645 24.7279 66.0043 18.7227 66.0043C12.7133 66.0043 8.5624 64.0645 4.97245 60.4817C-0.203127 55.3021 0.00109259 48.3924 0.00109259 41.0079C0.00109259 33.6135 -0.203127 26.7115 4.97245 21.5292C8.5624 17.9388 12.7133 16 18.7227 16C24.7279 16 28.8685 17.9388 32.4656 21.5292C37.6433 26.7115 37.4416 33.6135 37.4416 41.0079C37.4416 48.3924 37.6433 55.3021 32.4656 60.4817" fill="black"/>
<path d="M44.597 65.5898V16.4136H56.6848V54.8169H77.3304V65.5898H44.597Z" fill="black"/>
<path d="M106.094 29.955C104.991 28.2956 103.328 27.1849 100.299 27.1849H94.9796L94.9791 54.8169H100.298C103.328 54.8169 104.99 53.7078 106.094 52.0572C107.068 50.6777 107.41 49.3547 107.41 41.0079C107.41 32.7152 107.068 31.3359 106.094 29.955ZM114.391 60.7546C111.002 64.1398 106.234 65.5898 101.122 65.5898H82.8892V16.4136H101.123C106.236 16.4136 111.002 17.8708 114.391 21.2503C120.122 26.9827 119.496 33.2741 119.496 41.0079C119.496 48.7389 120.12 55.0221 114.391 60.7546" fill="black"/>
<path d="M126.728 16.4135H138.809V65.5984H126.723L126.728 16.4135" fill="black"/>
<path d="M150.384 66.7003C148.645 66.7003 147.156 66.0885 145.916 64.8651C144.693 63.6416 144.089 62.1605 144.105 60.4219C144.089 58.7154 144.693 57.2585 145.916 56.0511C147.156 54.8277 148.645 54.2159 150.384 54.2159C152.026 54.2159 153.474 54.8277 154.73 56.0511C156.002 57.2585 156.646 58.7154 156.662 60.4219C156.646 61.581 156.34 62.6354 155.744 63.5852C155.165 64.535 154.4 65.2917 153.45 65.8551C152.517 66.4186 151.494 66.7003 150.384 66.7003ZM182.741 66H164.462V16.5455H182.717C187.756 16.5455 192.095 17.5355 195.733 19.5156C199.387 21.4796 202.205 24.313 204.185 28.0156C206.165 31.7022 207.155 36.1132 207.155 41.2486C207.155 46.4001 206.165 50.8272 204.185 54.5298C202.221 58.2325 199.411 61.0739 195.757 63.054C192.103 65.018 187.764 66 182.741 66ZM176.415 55.8097H182.283C185.052 55.8097 187.394 55.3428 189.31 54.4091C191.241 53.4593 192.698 51.9219 193.68 49.7969C194.679 47.6558 195.178 44.8063 195.178 41.2486C195.178 37.6908 194.679 34.8575 193.68 32.7486C192.682 30.6236 191.209 29.0942 189.261 28.1605C187.33 27.2107 184.947 26.7358 182.114 26.7358H176.415V55.8097ZM214.134 66V16.5455H248.616V26.2528H226.087V36.3949H246.854V46.1264H226.087V56.2926H248.616V66H214.134ZM267.331 16.5455L278.391 52.767H278.801L289.861 16.5455H303.239L286.553 66H270.639L253.953 16.5455H267.331Z" fill="black"/>
</svg>
